<svg xmlns="http://www.w3.org/2000/svg" version="1.1" xmlns:xlink="http://www.w3.org/1999/xlink" xmlns:svgjs="http://svgjs.dev/svgjs" width="128" height="128" viewBox="0 0 128 128"><g transform="matrix(0.5099009900990099,0,0,0.5099009900990099,31.622674059405952,12.760752631578946)"><svg viewBox="0 0 60 95" data-background-color="#1a365d" preserveAspectRatio="xMidYMid meet" height="202" width="128" xmlns="http://www.w3.org/2000/svg" xmlns:xlink="http://www.w3.org/1999/xlink"><g id="tight-bounds" transform="matrix(1,0,0,1,-0.2356500000000068,-0.24049999999999727)"><svg viewBox="0 0 60.47130000000001 95.481" height="95.481" width="60.47130000000001"><g><svg viewBox="0 0 60.47130000000001 95.481" height="95.481" width="60.47130000000001"><g><svg viewBox="0 0 60.47130000000001 95.481" height="95.481" width="60.47130000000001"><g id="textblocktransform"><svg viewBox="0 0 60.47130000000001 95.481" height="95.481" width="60.47130000000001" id="textblock"><g><svg viewBox="0 0 60.47130000000001 95.481" height="95.481" width="60.47130000000001"><g><svg viewBox="0 0 60.47130000000001 95.481" height="95.481" width="60.47130000000001"><g><svg xmlns="http://www.w3.org/2000/svg" xmlns:xlink="http://www.w3.org/1999/xlink" version="1.1" x="0" y="0" viewBox="13 2 38.00000000000001 60" enable-background="new 0 0 64 64" xml:space="preserve" height="95.481" width="60.47130000000001" class="icon-icon-0" data-fill-palette-color="accent" id="icon-0"><g fill="#e9fc12" data-fill-palette-color="accent"><path d="M20 62h30c0.1 0 0.2 0 0.3-0.1 0 0 0.1 0 0.1 0 0 0 0.1 0 0.1 0 0.1 0 0.1-0.1 0.2-0.1 0 0 0 0 0 0 0.1-0.1 0.1-0.2 0.2-0.3 0 0 0 0 0-0.1 0-0.1 0.1-0.2 0.1-0.3V3c0-0.1 0-0.2-0.1-0.3 0 0 0-0.1 0-0.1 0-0.1-0.1-0.2-0.2-0.3 0 0 0 0 0 0-0.1-0.1-0.1-0.1-0.2-0.2 0 0 0 0-0.1 0 0 0-0.1 0-0.1 0C50.2 2 50.1 2 50 2c0 0 0 0 0 0h0c0 0 0 0 0 0H20c-0.6 0-1 0.4-1 1v24c0 0.6 0.4 1 1 1s1-0.4 1-1V4h25.3l-9.8 5.8c-0.3 0.2-0.5 0.5-0.5 0.9v43.9c0 0.4 0.2 0.7 0.6 0.9l9.2 4.6H21V39c0-0.6-0.4-1-1-1s-1 0.4-1 1v22C19 61.6 19.4 62 20 62zM38 11.2l11-6.5v54.6l-11-5.5V11.2z" fill="#e9fc12" data-fill-palette-color="accent"></path><path d="M25.6 39.7c0.1 0.1 0.3 0.1 0.4 0.1 0.2 0 0.5-0.1 0.6-0.2l7.1-5.8c0.2-0.2 0.4-0.5 0.4-0.8s-0.1-0.6-0.4-0.8l-7.1-5.8c-0.3-0.2-0.7-0.3-1.1-0.1-0.3 0.2-0.6 0.5-0.6 0.9V30H14c-0.6 0-1 0.4-1 1v4c0 0.6 0.4 1 1 1h11v2.8C25 39.2 25.2 39.5 25.6 39.7zM27 29.3l4.5 3.7L27 36.7V35v-4V29.3zM15 34v-2h10v2H15z" fill="#e9fc12" data-fill-palette-color="accent"></path></g></svg></g></svg></g></svg></g></svg></g></svg></g></svg></g><defs></defs></svg><rect width="60.47130000000001" height="95.481" fill="none" stroke="none" visibility="hidden"></rect></g></svg></g></svg>